<?xml version="1.0" encoding="UTF-8" standalone="no"?>
<svg
   xmlns:dc="http://purl.org/dc/elements/1.1/"
   xmlns:cc="http://creativecommons.org/ns#"
   xmlns:rdf="http://www.w3.org/1999/02/22-rdf-syntax-ns#"
   xmlns:svg="http://www.w3.org/2000/svg"
   xmlns="http://www.w3.org/2000/svg"
   xmlns:sodipodi="http://sodipodi.sourceforge.net/DTD/sodipodi-0.dtd"
   xmlns:inkscape="http://www.inkscape.org/namespaces/inkscape"
   width="142.00569mm"
   height="45.941158mm"
   viewBox="0 0 142.00569 45.941158"
   version="1.1"
   id="svg255"
   inkscape:version="1.0.2 (e86c870879, 2021-01-15, custom)"
   sodipodi:docname="smallarrow.svg">
  <defs
     id="defs249" />
  <sodipodi:namedview
     id="base"
     pagecolor="#ffffff"
     bordercolor="#666666"
     borderopacity="1.0"
     inkscape:pageopacity="0.0"
     inkscape:pageshadow="2"
     inkscape:zoom="0.98994949"
     inkscape:cx="619.16468"
     inkscape:cy="11.474147"
     inkscape:document-units="mm"
     inkscape:current-layer="layer1"
     inkscape:document-rotation="0"
     showgrid="false"
     inkscape:window-width="1624"
     inkscape:window-height="1020"
     inkscape:window-x="190"
     inkscape:window-y="0"
     inkscape:window-maximized="0" />
  <metadata
     id="metadata252">
    <rdf:RDF>
      <cc:Work
         rdf:about="">
        <dc:format>image/svg+xml</dc:format>
        <dc:type
           rdf:resource="http://purl.org/dc/dcmitype/StillImage" />
        <dc:title></dc:title>
      </cc:Work>
    </rdf:RDF>
  </metadata>
  <g
     inkscape:label="Layer 1"
     inkscape:groupmode="layer"
     id="layer1"
     transform="translate(-65.824538,-135.7795)">
    <path
       id="path148"
       style="fill:#000000;stroke-width:0.0913168"
       d="m 186.41946,135.78052 c -0.20054,0.002 -0.38259,0.007 -0.53326,0.015 -0.60269,0.0326 -1.32215,0.0577 -1.59838,0.0559 -0.27623,-0.002 -0.97475,0.0573 -1.55234,0.13155 -1.16246,0.14951 -1.28717,0.15963 -3.84325,0.29835 -0.98395,0.0534 -1.90898,0.14321 -2.05506,0.19968 -0.1461,0.0564 -0.84075,0.12504 -1.54387,0.15222 -0.70315,0.0273 -1.3193,0.0807 -1.36957,0.11887 -0.0502,0.0381 -0.53367,0.0764 -1.07405,0.0836 -0.54036,0.008 -1.3212,0.0738 -1.7351,0.14659 -0.90472,0.15922 -1.58554,0.1707 -1.67355,0.0282 -0.0466,-0.0755 -0.34687,-0.0839 -1.07874,-0.0319 -0.55759,0.0396 -1.1576,0.065 -1.33339,0.0568 -0.17578,-0.008 -0.9808,-0.0246 -1.78913,-0.0362 -1.07175,-0.0153 -1.50997,-0.0541 -1.61812,-0.14377 -0.20345,-0.16857 -3.35045,-0.19685 -4.14911,-0.0371 -1.09572,0.21915 -1.62851,0.28225 -2.71659,0.32089 -0.7414,0.0263 -1.21021,0.0875 -1.44944,0.18982 -0.27734,0.11861 -0.6528,0.15129 -1.74074,0.15129 -1.23204,0 -1.43246,0.0223 -1.79242,0.19638 -0.33491,0.16203 -0.65869,0.20868 -1.86618,0.26969 -0.8036,0.0406 -1.66628,0.11395 -1.9174,0.1635 -0.25113,0.0494 -0.93453,0.0931 -1.51851,0.0959 -0.86279,0.004 -1.0844,-0.0218 -1.1821,-0.13954 -0.10248,-0.12347 -0.26936,-0.13573 -1.12996,-0.0836 -0.65189,0.0395 -1.21982,0.0223 -1.60308,-0.0479 -0.39906,-0.0731 -1.4312,-0.0981 -3.15025,-0.0766 -1.40628,0.0177 -2.98842,0.0186 -3.51577,0.002 -1.24437,-0.0393 -2.75153,-0.0324 -5.84428,0.0277 -4.84053,0.094 -5.25711,0.10918 -6.07262,0.21941 -0.78829,0.10659 -4.55331,0.21612 -5.98146,0.17384 -1.23348,-0.0364 -1.76476,-0.0196 -2.92191,0.0926 -0.6278,0.0609 -1.98676,0.13009 -3.0201,0.15364 -1.03334,0.0236 -1.93742,0.0628 -2.00901,0.0874 -0.0716,0.0245 -0.40981,0.0664 -0.75127,0.0935 -0.34146,0.027 -0.69351,0.0883 -0.78228,0.13578 -0.0888,0.0475 -0.4667,0.0643 -0.84006,0.0376 -0.37336,-0.0268 -1.24843,0.0151 -1.94465,0.0935 -0.69622,0.0783 -1.29196,0.13698 -1.32399,0.13062 -0.032,-0.006 -0.20243,0.0149 -0.37822,0.0479 -0.17579,0.0329 -0.91523,0.0791 -1.64348,0.10242 -0.72826,0.0234 -2.14623,0.1035 -3.150717,0.1776 -1.004485,0.0742 -2.462055,0.16052 -3.239042,0.19216 -0.776992,0.0317 -1.458801,0.0961 -1.515688,0.1433 -0.05688,0.0472 -0.982758,0.10969 -2.057409,0.1386 -1.07465,0.0289 -2.167927,0.0928 -2.429517,0.14236 -0.261587,0.0495 -1.004389,0.10452 -1.650531,0.12216 -0.646139,0.0177 -1.352899,0.0804 -1.570657,0.13907 -0.217758,0.0581 -0.523415,0.0827 -0.678913,0.0536 -0.155495,-0.0291 -0.775597,0.004 -1.378025,0.0728 -0.602428,0.0694 -1.228902,0.10581 -1.392593,0.0808 -0.163688,-0.025 -0.35251,2.7e-4 -0.419562,0.0559 -0.08493,0.0701 -0.895278,0.091 -2.670542,0.0681 -1.401549,-0.0182 -2.918107,6.1e-4 -3.370128,0.0413 -0.452018,0.0408 -1.972301,0.0995 -3.378584,0.13108 -1.40628,0.0315 -2.741936,0.1022 -2.967948,0.15693 -0.226009,0.0547 -1.068232,0.10305 -1.871823,0.10759 -1.295981,0.007 -1.496852,0.0292 -1.777385,0.19404 -0.386814,0.22725 -0.892642,1.12257 -0.975378,1.72618 l -0.05779,0.42191 1.487028,1.48139 c 1.631411,1.62479 3.27589,3.5346 3.707468,4.30651 0.08262,0.14777 0.305778,0.43565 0.496146,0.63945 0.190369,0.20379 0.500021,0.59624 0.687838,0.87248 0.187818,0.27623 0.499424,0.69306 0.692537,0.92605 0.193116,0.23298 0.350966,0.46084 0.350966,0.50648 0,0.0456 0.16825,0.24546 0.373989,0.444 0.20574,0.19853 0.565282,0.60731 0.79872,0.90866 0.233439,0.30134 0.7215,0.8712 1.08485,1.2662 0.363349,0.39501 0.801216,0.92936 0.972559,1.18727 0.171343,0.25792 0.403272,0.55122 0.515409,0.65166 0.112135,0.10046 0.515359,0.55249 0.896445,1.00451 0.381088,0.45201 1.084985,1.21257 1.56408,1.69047 0.479098,0.47788 1.014779,1.0699 1.190562,1.31554 0.175786,0.24561 0.432733,0.60619 0.570851,0.80107 0.323576,0.45653 0.316364,0.61598 -0.04558,0.99887 -0.335556,0.35494 -0.859522,1.06316 -1.090486,1.47387 -0.08505,0.15122 -0.634648,0.77272 -1.221101,1.38084 -2.904175,3.01148 -5.583196,5.87297 -5.77991,6.17364 -0.08215,0.12556 -0.43715,0.58371 -0.788854,1.01813 -0.606323,0.74889 -0.972357,1.33639 -1.812625,2.90875 -0.368151,0.6889 -0.748486,1.29702 -1.22016,1.95122 -0.140165,0.1944 -0.321243,0.47071 -0.40218,0.61408 -0.08093,0.14338 -0.286492,0.41969 -0.45668,0.61407 -0.714001,0.81547 -0.765985,0.89971 -0.778987,1.25728 -0.01297,0.35685 -0.15021,1.23909 -0.263576,1.69329 -0.05415,0.21693 -0.03832,0.23606 0.163972,0.19733 0.141309,-0.027 0.270721,-0.14905 0.350966,-0.33124 l 0.126857,-0.28895 0.822211,0.0113 c 4.247964,0.0562 7.848635,-0.0283 9.679542,-0.22693 0.452021,-0.049 1.211926,-0.11405 1.689056,-0.14424 0.477132,-0.0302 1.155191,-0.0952 1.506763,-0.14471 0.755612,-0.10616 3.821309,-0.25864 6.072618,-0.3021 1.35205,-0.0261 1.668289,-0.0598 2.054588,-0.21754 0.390301,-0.15932 0.679822,-0.18866 1.99257,-0.20203 0.844629,-0.009 1.628443,-0.0509 1.741679,-0.094 0.113235,-0.0431 0.819015,-0.10562 1.568779,-0.13907 1.759683,-0.0786 2.487253,-0.11874 3.828687,-0.2119 0.602692,-0.0419 1.630015,-0.0464 2.282925,-0.0103 1.14828,0.0635 2.58338,-0.0216 3.24187,-0.19216 0.17578,-0.0456 0.91569,-0.088 1.64395,-0.0935 0.72825,-0.006 1.6114,-0.0546 1.96297,-0.10853 0.35157,-0.0539 1.05009,-0.11211 1.55233,-0.1292 0.50225,-0.017 1.92022,-0.0861 3.15072,-0.15364 1.23049,-0.0674 2.52476,-0.12701 2.87633,-0.13155 0.91534,-0.0125 1.64027,-0.0712 1.75483,-0.14189 0.0544,-0.0336 0.78767,-0.10234 1.62986,-0.15317 0.84219,-0.0508 1.78151,-0.13224 2.08701,-0.18088 0.30549,-0.0487 1.24023,-0.12751 2.07714,-0.17478 0.85031,-0.0481 1.61327,-0.13468 1.72946,-0.19686 0.14298,-0.0765 0.97939,-0.12373 2.67806,-0.15082 1.88551,-0.03 2.53551,-0.0701 2.74524,-0.16961 0.15113,-0.0716 0.43905,-0.12307 0.63992,-0.1137 0.86201,0.0393 3.78587,-0.13277 4.24919,-0.24995 0.33562,-0.0849 1.56349,-0.16071 3.65296,-0.22599 1.73096,-0.0541 3.80456,-0.14081 4.60815,-0.19264 0.80359,-0.0518 1.62535,-0.0964 1.82626,-0.0991 0.80432,-0.011 5.17887,0.12762 6.16376,0.19545 0.57758,0.0397 1.31749,0.0376 1.64395,-0.005 1.36728,-0.17704 2.77959,-0.24736 2.96513,-0.148 0.29109,0.15587 7.83485,0.43279 8.67786,0.31855 0.30135,-0.0408 1.26681,-0.11058 2.14573,-0.15504 0.87893,-0.0445 1.9681,-0.12401 2.42012,-0.17619 0.45202,-0.0522 1.21193,-0.13558 1.68906,-0.18559 0.47713,-0.05 1.05242,-0.14043 1.27842,-0.20062 0.41758,-0.1112 0.99395,-0.13521 5.29645,-0.22176 5.24888,-0.10555 9.09453,-0.045 10.20435,0.16022 0.43204,0.0796 0.76276,0.0795 1.36393,-9.5e-4 0.66978,-0.0896 0.83598,-0.0849 1.06465,0.0291 0.14902,0.0744 0.41888,0.13488 0.59951,0.13579 0.28617,8.1e-4 0.39567,-0.0723 0.85322,-0.56803 0.28878,-0.31292 0.52527,-0.61053 0.52527,-0.66153 0,-0.051 0.49007,-0.58668 1.08908,-1.19009 0.59903,-0.60342 1.30801,-1.37107 1.57536,-1.70597 0.26735,-0.33492 0.97876,-1.16546 1.58146,-1.84599 1.31932,-1.4897 2.47295,-2.88393 2.87117,-3.46973 0.0724,-0.10645 0.5067,-0.58375 0.96504,-1.06089 0.45835,-0.47712 0.93055,-1.03194 1.04961,-1.23284 0.11906,-0.2009 0.39371,-0.5936 0.61032,-0.87296 0.2166,-0.27936 0.39419,-0.54923 0.39419,-0.59951 0,-0.0503 0.27741,-0.39766 0.61642,-0.77193 0.71331,-0.78749 0.83165,-0.93973 1.59274,-2.04755 0.31055,-0.45202 0.82373,-1.13008 1.14029,-1.50676 1.00223,-1.19259 1.30755,-1.64158 1.30755,-1.92256 0,-0.058 0.12325,-0.28839 0.27392,-0.51165 0.15068,-0.22325 0.27391,-0.44251 0.27391,-0.48769 0,-0.0452 0.0719,-0.12268 0.15974,-0.17196 0.14757,-0.0827 0.13883,-0.12828 -0.11417,-0.59763 -0.15067,-0.27953 -0.30655,-0.50865 -0.34673,-0.50883 -0.0401,-1.9e-4 -0.0453,-0.24595 -0.0113,-0.54642 0.051,-0.45072 0.0367,-0.55593 -0.0817,-0.60139 -0.17092,-0.0656 -0.78446,-0.84996 -1.06653,-1.36346 -0.11036,-0.2009 -0.27891,-0.45025 -0.37446,-0.55394 -0.0956,-0.10369 -0.17384,-0.25659 -0.17384,-0.33969 0,-0.30251 -0.96167,-1.67227 -1.34701,-1.9188 -0.0628,-0.0402 -0.11417,-0.12346 -0.11417,-0.18465 0,-0.1488 -0.89633,-1.05321 -1.19902,-1.20983 -0.28744,-0.14873 -0.71838,-0.64111 -0.71838,-0.8208 0,-0.0705 -0.2612,-0.40662 -0.58025,-0.74657 -0.31906,-0.33995 -0.59642,-0.66642 -0.61642,-0.72543 -0.0752,-0.22255 -1.27173,-1.55473 -2.59631,-2.89089 -0.75507,-0.76169 -1.80286,-1.87544 -2.3285,-2.47509 -0.52565,-0.59966 -1.34943,-1.50374 -1.83048,-2.00902 -0.48105,-0.50528 -1.11772,-1.19222 -1.41514,-1.52649 -0.29743,-0.33427 -0.61261,-0.61188 -0.70053,-0.61643 -0.0879,-0.005 -0.15974,-0.0547 -0.15974,-0.11135 0,-0.0708 -0.14974,-0.0846 -0.4797,-0.0437 -0.72418,0.0898 -1.61369,0.0803 -3.12769,-0.0338 -0.56503,-0.0426 -1.33034,-0.0643 -1.93197,-0.0587 z m 0.95658,1.4048 c 1.15249,-9e-5 2.16943,0.0361 2.52678,0.11887 0.82904,0.19196 1.53259,0.45771 1.92444,0.7273 0.4389,0.30198 2.09186,2.04871 2.37032,2.5047 0.10142,0.16608 0.35317,0.48463 0.5591,0.70804 0.20593,0.22341 0.45006,0.526 0.54266,0.67233 0.0926,0.14634 0.48849,0.60795 0.87953,1.02565 0.39106,0.41768 0.71087,0.80442 0.71087,0.85933 0,0.0549 0.21555,0.33666 0.47923,0.62629 0.69502,0.76343 2.01653,2.35061 2.12412,2.5512 0.0507,0.0946 0.47185,0.56478 0.93591,1.04492 0.46408,0.48012 0.84383,0.91852 0.84383,0.97444 0,0.056 0.2816,0.43646 0.62582,0.84523 0.34423,0.40877 0.69548,0.87782 0.78039,1.0421 0.0849,0.16427 0.47142,0.65396 0.85839,1.0886 0.38698,0.43466 0.82659,0.93606 0.97726,1.11398 0.15068,0.17793 0.59224,0.65582 0.98148,1.06183 0.38924,0.40602 0.70805,0.8021 0.70805,0.88047 0,0.0784 -0.14417,0.38135 -0.31996,0.67327 -0.17578,0.29193 -0.31949,0.57815 -0.31949,0.63616 0,0.2181 -0.2775,0.65028 -0.54501,0.84805 -0.1525,0.11276 -0.42232,0.4929 -0.59951,0.84477 -0.20334,0.40377 -0.54874,0.87028 -0.93591,1.26526 -1.02727,1.04797 -2.32808,2.61096 -2.60101,3.12535 -0.23577,0.44434 -1.05639,1.49427 -1.89343,2.42246 -0.47713,0.5291 -1.01102,1.15278 -1.18681,1.38602 -0.3773,0.50062 -1.23637,1.50917 -2.196,2.57798 -0.37909,0.42222 -0.75755,0.87685 -0.84101,1.01015 -0.0835,0.13329 -0.5337,0.64008 -1.00028,1.12619 -0.46657,0.48611 -0.96317,1.05503 -1.10364,1.26433 -0.30821,0.4593 -1.89118,2.07009 -2.03439,2.07009 -0.056,0 -0.17349,0.0792 -0.26123,0.17619 -0.0877,0.097 -0.41285,0.27753 -0.72213,0.40124 -0.49675,0.19862 -0.68373,0.22261 -1.60261,0.20579 -0.93994,-0.0172 -1.05517,-0.0377 -1.19808,-0.21425 -0.14907,-0.18412 -0.265,-0.19872 -2.01888,-0.25418 -2.4638,-0.078 -8.85491,-0.10133 -8.89774,-0.0324 -0.0186,0.0299 -0.68239,0.0624 -1.47528,0.0724 -0.79288,0.01 -1.83165,0.0803 -2.30877,0.15645 -1.21526,0.19382 -2.1679,0.29566 -3.32361,0.35567 -0.54719,0.0284 -1.0402,0.0811 -1.09566,0.11652 -0.0797,0.0509 -2.39082,0.124 -3.61679,0.11464 -2.50147,-0.0192 -3.8158,-0.0653 -3.92641,-0.13719 -0.0797,-0.0518 -0.88127,-0.0808 -1.91787,-0.07 -0.97938,0.0102 -2.37642,-0.0137 -3.10467,-0.0531 -0.72825,-0.0389 -1.36572,-0.0413 -1.41655,-0.005 -0.16979,0.1225 -2.25355,0.12739 -5.34108,0.0122 -3.26857,-0.12187 -5.97693,-0.0903 -6.69751,0.0785 -0.24339,0.057 -0.62614,0.0786 -0.8504,0.0479 -0.22426,-0.0307 -1.23749,-0.009 -2.25145,0.0484 -1.01397,0.0573 -1.94642,0.10087 -2.07198,0.0963 -1.22469,-0.0423 -1.46738,-0.0214 -1.84316,0.16068 -0.35578,0.17239 -0.55611,0.19085 -2.06023,0.19076 -1.40143,-7e-5 -1.72802,0.0264 -2.05458,0.16491 -0.66723,0.28296 -1.48902,0.40431 -1.87418,0.2772 -0.51237,-0.1691 -4.27635,-0.0378 -4.74298,0.16538 -0.25406,0.11061 -0.63388,0.15191 -1.42783,0.15646 -0.59493,0.003 -1.10056,-0.0248 -1.12384,-0.0625 -0.0769,-0.12442 -0.80264,-0.0698 -1.08156,0.0813 -0.17302,0.0938 -0.55899,0.15927 -1.04726,0.17854 -0.42522,0.0168 -1.16513,0.0985 -1.64396,0.18136 -0.85953,0.1486 -1.0836,0.16935 -2.87915,0.27015 -0.50224,0.0282 -0.9752,0.0737 -1.05055,0.10102 -0.0753,0.0274 -0.5683,0.0604 -1.09565,0.0728 -0.83194,0.0197 -1.46044,0.0631 -3.88084,0.26734 -0.25112,0.0212 -1.3403,0.0858 -2.42012,0.14377 -1.07982,0.058 -2.10714,0.15257 -2.28293,0.21048 -0.21105,0.0695 -1.29634,0.10922 -3.19582,0.11558 -2.780587,0.01 -5.627088,0.13281 -7.370301,0.31949 -0.462595,0.0496 -1.378876,0.0902 -2.036264,0.0902 -0.873536,0 -1.26518,0.0362 -1.455079,0.13437 -0.373396,0.19309 -1.951349,0.3189 -4.159921,0.33217 -1.897463,0.0113 -2.901624,0.0813 -3.698541,0.25748 -0.226009,0.05 -1.378157,0.13388 -2.560601,0.18652 -1.182444,0.0526 -2.292083,0.13661 -2.465694,0.18652 v -9.4e-4 c -0.36424,0.10471 -3.393927,0.23298 -3.473962,0.14706 -0.02939,-0.0315 -0.262588,-0.0746 -0.518229,-0.0958 -0.255638,-0.0213 -0.547458,-0.0827 -0.648372,-0.13673 -0.10091,-0.054 -0.598398,-0.0982 -1.105521,-0.0982 -0.735352,0 -0.932525,0.0275 -0.974437,0.13672 -0.0695,0.18135 -0.480503,0.17668 -0.550646,-0.006 -0.0303,-0.079 0.0328,-0.26234 0.14001,-0.40734 0.107206,-0.14502 0.19498,-0.32443 0.19498,-0.3989 0,-0.0744 0.04093,-0.16059 0.09115,-0.19169 0.05023,-0.031 0.09162,-0.14994 0.09162,-0.26405 0,-0.12529 0.0862,-0.25372 0.218003,-0.32418 0.120033,-0.0642 0.273548,-0.22542 0.341101,-0.35801 0.06755,-0.13258 0.332987,-0.61075 0.589643,-1.06277 0.256655,-0.45202 0.685453,-1.23286 0.953295,-1.7351 0.562462,-1.0547 0.980535,-1.6482 1.527434,-2.16923 0.213452,-0.20336 0.388083,-0.43129 0.388083,-0.50648 0,-0.0752 0.223022,-0.35281 0.495208,-0.61643 0.272186,-0.26363 0.604283,-0.64441 0.738108,-0.84664 0.133826,-0.20222 0.558409,-0.62272 0.94343,-0.93403 0.385022,-0.31131 0.83979,-0.72869 1.010615,-0.92746 0.170826,-0.19878 0.40308,-0.3962 0.51635,-0.43929 0.113268,-0.0431 0.35786,-0.30677 0.543129,-0.58589 0.185269,-0.27912 0.612265,-0.74423 0.949066,-1.03316 0.840326,-0.72088 1.359478,-1.36426 1.772219,-2.19554 0.192252,-0.38721 0.47254,-0.85804 0.622531,-1.0468 0.149982,-0.18875 0.249461,-0.38118 0.220823,-0.42755 -0.02864,-0.0463 -0.0122,-0.10888 0.03665,-0.13907 0.04888,-0.0302 0.06764,-0.11041 0.04182,-0.1776 -0.02844,-0.0741 0.114533,-0.22402 0.362712,-0.38103 l 0.409697,-0.25935 -0.05121,-0.46044 c -0.02808,-0.25315 -0.120249,-0.54229 -0.20485,-0.64273 -0.0846,-0.10046 -0.218901,-0.28782 -0.298345,-0.41628 -0.249314,-0.40316 -2.00517,-2.1899 -2.300781,-2.34119 -0.582857,-0.29829 -1.157525,-0.8859 -1.783024,-1.82436 -0.354947,-0.53255 -0.645084,-1.0039 -0.645084,-1.04727 0,-0.0433 -0.159835,-0.22333 -0.355197,-0.39983 -0.19536,-0.1765 -0.512677,-0.55635 -0.704751,-0.84429 -0.192074,-0.28796 -0.440618,-0.62618 -0.552527,-0.75174 -0.111909,-0.12556 -0.362192,-0.51765 -0.556285,-0.87107 -0.373137,-0.67947 -0.971916,-1.42737 -2.652219,-3.31375 -1.671382,-1.87636 -1.742293,-1.96055 -2.011833,-2.39005 -0.567016,-0.90351 -1.691846,-2.11279 -2.558253,-2.74994 -0.300459,-0.22097 -0.836306,-1.03287 -0.836306,-1.26715 0,-0.0506 0.09994,-0.0921 0.222233,-0.0921 0.122291,0 0.337845,-0.0479 0.479232,-0.10665 0.141387,-0.0587 0.712384,-0.1188 1.269024,-0.13344 0.556639,-0.0147 1.13192,-0.0746 1.278421,-0.13296 0.172601,-0.0688 1.166425,-0.1173 2.823239,-0.13766 2.172198,-0.0266 2.62563,-0.0556 3.013521,-0.19451 0.378149,-0.1354 0.605984,-0.1524 1.324466,-0.0987 1.596851,0.11947 3.760292,0.15313 3.96118,0.0615 0.119917,-0.0546 0.389183,-0.0591 0.696764,-0.0113 0.275703,0.0426 0.659823,0.0444 0.853691,0.004 0.388127,-0.0814 1.845759,-0.22233 3.107489,-0.3007 0.446373,-0.0277 0.856109,-0.0782 0.910542,-0.11182 0.05443,-0.0336 0.901347,-0.0947 1.882159,-0.13578 0.980813,-0.0411 2.235065,-0.11047 2.787532,-0.15411 0.552467,-0.0437 1.497939,-0.1077 2.100632,-0.14189 0.602693,-0.0342 1.280751,-0.10072 1.50676,-0.14799 0.22601,-0.0472 0.944994,-0.10607 1.59791,-0.13062 0.652916,-0.0245 1.783015,-0.0873 2.511268,-0.13954 4.210173,-0.30255 6.835503,-0.46888 8.506833,-0.53843 1.18616,-0.0494 2.10615,-0.13346 2.47885,-0.22693 0.46266,-0.11598 1.08059,-0.15003 2.81666,-0.15458 3.28726,-0.008 4.1232,-0.0311 4.30698,-0.11839 0.0944,-0.045 0.25124,-0.0428 0.36506,0.005 0.1098,0.0455 0.44663,0.0706 0.74798,0.055 0.30135,-0.016 1.04079,-0.0233 1.64348,-0.0169 0.6027,0.007 1.30122,0.0109 1.55234,0.0103 0.70796,-0.002 1.72583,-0.11844 1.82201,-0.20908 0.0477,-0.0449 1.00096,-0.0813 2.11849,-0.0813 1.11753,0 2.22888,-0.0421 2.46992,-0.0935 0.28422,-0.0606 1.11257,-0.0678 2.35623,-0.0202 1.08872,0.0422 2.21359,0.0386 2.60241,-0.008 0.52596,-0.063 0.92208,-0.0456 1.70738,0.0756 0.86428,0.13338 1.1614,0.14209 1.91787,0.0554 1.31637,-0.15073 5.35515,-0.11526 5.85086,0.0512 0.21446,0.0722 0.42671,0.10816 0.47171,0.0803 0.045,-0.0278 0.19831,-0.006 0.34063,0.0484 0.40546,0.15563 4.22566,0.11989 4.66077,-0.0437 0.23329,-0.0878 0.90132,-0.14529 2.04895,-0.17666 1.45608,-0.0397 1.7536,-0.0726 2.056,-0.22693 0.25815,-0.13173 0.54089,-0.18142 1.04727,-0.18324 0.38148,-10e-4 0.95184,-0.0494 1.26761,-0.10665 0.31577,-0.0574 0.67489,-0.0788 0.79778,-0.0479 0.12288,0.0307 0.27088,0.0186 0.32888,-0.0272 0.26729,-0.21119 2.25289,-0.48165 3.34711,-0.45574 0.37668,0.009 0.89793,-0.0359 1.15861,-0.0996 0.37307,-0.0911 0.82007,-0.0944 2.10017,-0.0155 0.89537,0.0552 1.64028,0.14111 1.6571,0.19075 0.0652,0.19323 8.18133,-0.002 9.77304,-0.23444 0.52012,-0.0761 1.01782,-0.11511 1.10647,-0.0869 0.0887,0.0281 0.64943,-0.0152 1.246,-0.0963 1.06759,-0.14524 2.35225,-0.24575 4.96803,-0.38809 0.72935,-0.0397 1.38114,-0.10645 1.44851,-0.148 0.24984,-0.15441 2.54732,-0.25497 4.46813,-0.25512 z" />
  </g>
</svg>
